<svg width="20" height="24" viewBox="0 0 20 24" fill="none" xmlns="http://www.w3.org/2000/svg">
<path d="M17.3526 7.3028C15.6067 5.92914 13.1337 6.30945 11.1746 6.79431C10.8595 6.8725 10.5363 6.9104 10.2124 6.9245C10.161 6.66577 10.0969 6.40631 10.0185 6.14886L11.5326 5.92328C13.4719 5.6347 14.9693 4.13727 15.2581 2.198L15.4815 0.697266C15.5009 0.645081 15.5082 0.590698 15.5054 0.535583L15.5847 0L13.3867 0.32721C11.4475 0.616333 9.95002 2.11322 9.66126 4.05267L9.52961 4.93781C9.08027 4.07538 8.43391 3.3208 7.54237 2.84509C7.34406 2.73926 7.09925 2.8147 6.99342 3.01208C6.88795 3.21002 6.96284 3.45538 7.16041 3.56085C8.3982 4.22076 9.081 5.55615 9.37946 6.89813C9.19013 6.87433 9.00245 6.841 8.81715 6.79486C6.85792 6.30981 4.38416 5.92914 2.63898 7.30334C1.07563 8.53381 0.324531 10.9695 0.344123 14.7491C0.358406 17.5417 1.96644 20.7631 4.25489 22.5831C5.76606 23.7854 7.39112 24.2358 8.95173 23.8835C9.63526 23.7294 10.3563 23.7294 11.0395 23.8835C11.385 23.9614 11.7329 23.9998 12.0819 23.9998C13.3129 23.9998 14.559 23.5197 15.7363 22.5831C18.0248 20.7627 19.6325 17.5413 19.6471 14.7491C19.6669 10.9689 18.9161 8.53345 17.3526 7.3028ZM11.4128 5.12109L11.0573 5.17419L14.5082 1.72321L14.4551 2.0788C14.22 3.66248 12.9971 4.88544 11.4128 5.12109ZM13.5063 1.12958L14.0338 1.05103L10.3851 4.69977L10.4638 4.17188C10.6993 2.5882 11.9222 1.3656 13.5063 1.12958ZM15.2319 21.9485C14.3173 22.6767 12.8795 23.4675 11.2182 23.092C10.8185 23.0021 10.4072 22.957 9.9958 22.957C9.58472 22.957 9.17347 23.0021 8.77375 23.092C7.11573 23.4666 5.67469 22.6769 4.76008 21.9485C2.68439 20.2971 1.16846 17.2679 1.15546 14.7448C1.13715 11.2313 1.78681 9.00568 3.14069 7.94019C4.2873 7.03802 5.97883 6.9278 8.62287 7.58167C8.91657 7.65436 9.21613 7.69446 9.51734 7.71954C9.54041 7.92719 9.55579 8.1319 9.56239 8.33075C9.56916 8.54993 9.74934 8.72314 9.96705 8.72314H9.98005C10.2042 8.71582 10.3794 8.52887 10.3724 8.30511C10.3664 8.11743 10.3518 7.92389 10.332 7.72852C10.6812 7.70819 11.0289 7.66608 11.3691 7.58221C14.0131 6.92853 15.7043 7.03894 16.8514 7.94055C18.2057 9.00623 18.8548 11.2322 18.8367 14.7455C18.824 17.2674 17.3076 20.2971 15.2319 21.9485Z" fill="#999999"/>
</svg>
